<?xml version="1.0" encoding="iso-8859-1"?>
<!-- Uploaded to: SVG Repo, www.svgrepo.com, Generator: SVG Repo Mixer Tools -->
<svg height="800px" width="800px" version="1.1" id="Layer_1" xmlns="http://www.w3.org/2000/svg" xmlns:xlink="http://www.w3.org/1999/xlink" 
	 viewBox="0 0 511.6 511.6" xml:space="preserve">
<path style="fill:#434A54;" d="M507.104,492.256L359.031,344.168l-15.082,15.082l149.337,149.337l0.109-0.109
	c1.937,1.936,4.59,3.122,7.541,3.122c5.886,0,10.663-4.777,10.663-10.663C511.6,497.362,509.822,494.192,507.104,492.256z"/>
<path style="fill:#5D9CEC;" d="M0.001,213.146c0,117.721,95.425,213.146,213.146,213.146s213.146-95.426,213.146-213.146
	S330.867,0,213.147,0S0.001,95.425,0.001,213.146z"/>
<path id="SVGCleanerId_0" style="fill:#A0D468;" d="M213.147,0v213.146l183.888,107.838c18.579-31.647,29.258-68.493,29.258-107.838
	C426.292,95.425,330.867,0,213.147,0z"/>
<g>
	<path id="SVGCleanerId_0_1_" style="fill:#A0D468;" d="M213.147,0v213.146l183.888,107.838
		c18.579-31.647,29.258-68.493,29.258-107.838C426.292,95.425,330.867,0,213.147,0z"/>
</g>
<g>
	<path style="fill:#8CC153;" d="M392.195,97.471L213.147,200.843v12.303l10.57,6.198l179.156-103.435
		C399.611,109.571,396.034,103.419,392.195,97.471z"/>
	<path style="fill:#8CC153;" d="M266.018,244.153l152.529-88.056c-1.936-7.042-4.246-13.927-6.869-20.656l-166.807,96.315
		L266.018,244.153z"/>
	<path style="fill:#8CC153;" d="M308.322,268.961l117.627-67.899c-0.438-7.838-1.312-15.551-2.576-23.139l-136.19,78.642
		L308.322,268.961z"/>
	<path style="fill:#8CC153;" d="M350.633,293.77l72.085-41.623c1.607-8.649,2.669-17.486,3.2-26.464l-96.44,55.69L350.633,293.77z"
		/>
	<path style="fill:#8CC153;" d="M213.147,176.222l166.495-96.128c-4.527-5.684-9.352-11.116-14.426-16.284L213.147,151.6V176.222z"
		/>
	<path style="fill:#8CC153;" d="M213.147,126.994l135.612-78.298c-5.994-4.934-12.24-9.54-18.734-13.802l-116.878,67.479
		L213.147,126.994L213.147,126.994z"/>
	<path style="fill:#8CC153;" d="M213.147,77.752l95.55-55.16c-7.899-3.981-16.096-7.479-24.543-10.461l-71.007,41.015V77.752z"/>
</g>
<path style="fill:#434A54;" d="M213.147,0C95.426,0,0.001,95.425,0.001,213.146s95.425,213.146,213.146,213.146
	s213.146-95.426,213.146-213.146S330.867,0,213.147,0z M348.79,348.789c-17.627,17.627-38.142,31.46-60.982,41.125
	c-23.639,9.992-48.759,15.066-74.661,15.066c-25.909,0-51.03-5.074-74.668-15.066c-22.834-9.665-43.356-23.498-60.976-41.125
	c-17.627-17.626-31.46-38.142-41.124-60.982c-9.992-23.639-15.066-48.759-15.066-74.661c0-25.901,5.074-51.022,15.066-74.66
	c9.664-22.842,23.497-43.356,41.124-60.983c17.619-17.627,38.142-31.46,60.976-41.124c23.638-9.992,48.759-15.066,74.668-15.066
	c25.902,0,51.022,5.074,74.661,15.066c22.841,9.664,43.355,23.497,60.982,41.124c17.611,17.627,31.445,38.142,41.125,60.983
	c9.992,23.638,15.051,48.759,15.051,74.66c0,25.902-5.059,51.022-15.051,74.661C380.236,310.648,366.402,331.163,348.79,348.789z"/>
</svg>