<?xml version="1.0" encoding="iso-8859-1"?>
<!-- Uploaded to: SVG Repo, www.svgrepo.com, Generator: SVG Repo Mixer Tools -->
<svg height="800px" width="800px" version="1.1" id="Layer_1" xmlns="http://www.w3.org/2000/svg" xmlns:xlink="http://www.w3.org/1999/xlink" 
	 viewBox="0 0 512 512" xml:space="preserve">
<g>
	<path style="fill:#3C494E;" d="M238.345,88.276h-44.138v88.276H70.621V88.276H26.483c-9.754,0-17.655,7.901-17.655,17.655v388.414
		c0,9.754,7.901,17.655,17.655,17.655h211.862c9.754,0,17.655-7.901,17.655-17.655V105.931
		C256,96.221,248.055,88.276,238.345,88.276"/>
	<path style="fill:#6D7CA0;" d="M503.172,171.639v256.997c0,11.908-9.657,21.566-21.566,21.566h-168.73
		c-11.908,0-21.566-9.657-21.566-21.566V171.639c0-11.917,9.657-21.575,21.566-21.575h168.73
		C493.515,150.065,503.172,159.722,503.172,171.639"/>
	<g>
		<polygon style="fill:#434C6D;" points="326.625,450.207 361.935,450.207 361.935,150.069 326.625,150.069 		"/>
		<polygon style="fill:#434C6D;" points="414.901,282.483 467.866,282.483 467.866,194.207 414.901,194.207 		"/>
		<path style="fill:#434C6D;" d="M397.241,423.724c-4.882,0-8.828-3.946-8.828-8.828v-8.828c0-4.882,3.946-8.828,8.828-8.828
			c4.882,0,8.828,3.946,8.828,8.828v8.828C406.069,419.778,402.123,423.724,397.241,423.724"/>
		<path style="fill:#434C6D;" d="M397.241,379.586c-4.882,0-8.828-3.946-8.828-8.828v-52.966c0-4.882,3.946-8.828,8.828-8.828
			c4.882,0,8.828,3.946,8.828,8.828v52.966C406.069,375.64,402.123,379.586,397.241,379.586"/>
		<path style="fill:#434C6D;" d="M432.552,423.724c-4.882,0-8.828-3.946-8.828-8.828v-52.966c0-4.882,3.946-8.828,8.828-8.828
			c4.882,0,8.828,3.946,8.828,8.828v52.966C441.379,419.778,437.433,423.724,432.552,423.724"/>
		<path style="fill:#434C6D;" d="M432.552,344.276c-4.882,0-8.828-3.946-8.828-8.828v-17.655c0-4.882,3.946-8.828,8.828-8.828
			c4.882,0,8.828,3.946,8.828,8.828v17.655C441.379,340.33,437.433,344.276,432.552,344.276"/>
	</g>
	<polygon style="fill:#B1D194;" points="44.142,300.138 220.694,300.138 220.694,211.862 44.142,211.862 	"/>
	<polygon style="fill:#F0EDE0;" points="70.625,176.552 194.211,176.552 194.211,35.31 70.625,35.31 	"/>
	<path style="fill:#222D30;" d="M211.862,185.379H52.966c-4.882,0-8.828-3.946-8.828-8.828s3.946-8.828,8.828-8.828h158.897
		c4.882,0,8.828,3.946,8.828,8.828S216.744,185.379,211.862,185.379"/>
	<g>
		<path style="fill:#D4C3A5;" d="M158.897,79.448h-52.966c-4.882,0-8.828-3.946-8.828-8.828c0-4.882,3.946-8.828,8.828-8.828h52.966
			c4.882,0,8.828,3.946,8.828,8.828C167.724,75.502,163.778,79.448,158.897,79.448"/>
		<path style="fill:#D4C3A5;" d="M158.897,114.759h-52.966c-4.882,0-8.828-3.946-8.828-8.828c0-4.882,3.946-8.828,8.828-8.828
			h52.966c4.882,0,8.828,3.946,8.828,8.828C167.724,110.813,163.778,114.759,158.897,114.759"/>
		<path style="fill:#D4C3A5;" d="M158.897,150.069h-52.966c-4.882,0-8.828-3.946-8.828-8.828s3.946-8.828,8.828-8.828h52.966
			c4.882,0,8.828,3.946,8.828,8.828S163.778,150.069,158.897,150.069"/>
	</g>
	<g>
		<path style="fill:#25C3AB;" d="M414.897,114.759c-4.882,0-8.828-3.946-8.828-8.828V8.828c0-4.882,3.946-8.828,8.828-8.828
			c4.882,0,8.828,3.946,8.828,8.828v97.103C423.724,110.813,419.778,114.759,414.897,114.759"/>
		<path style="fill:#25C3AB;" d="M414.897,114.759c-2.26,0-4.52-0.865-6.241-2.586c-3.452-3.452-3.452-9.031,0-12.482l35.31-35.31
			c3.452-3.452,9.031-3.452,12.482,0c3.452,3.452,3.452,9.031,0,12.482l-35.31,35.31
			C419.416,113.894,417.156,114.759,414.897,114.759"/>
		<path style="fill:#25C3AB;" d="M414.897,114.759c-2.26,0-4.52-0.865-6.241-2.586l-35.31-35.31c-3.452-3.452-3.452-9.031,0-12.482
			c3.452-3.452,9.031-3.452,12.482,0l35.31,35.31c3.452,3.452,3.452,9.031,0,12.482
			C419.416,113.894,417.156,114.759,414.897,114.759"/>
	</g>
	<path style="fill:#222D30;" d="M291.31,428.636V171.638c0-10.575,7.618-19.324,17.655-21.177l0,0
		c0-14.839-12.032-26.871-26.88-26.871H256v353.103h26.086c14.848,0,26.88-12.041,26.88-26.88l0,0
		C298.929,447.968,291.31,439.211,291.31,428.636"/>
	<g>
		<path style="fill:#FFFFFF;" d="M52.966,344.276h-8.828c-4.882,0-8.828-3.946-8.828-8.828c0-4.882,3.946-8.828,8.828-8.828h8.828
			c4.882,0,8.828,3.946,8.828,8.828C61.793,340.33,57.847,344.276,52.966,344.276"/>
		<path style="fill:#FFFFFF;" d="M97.103,344.276h-8.828c-4.882,0-8.828-3.946-8.828-8.828c0-4.882,3.946-8.828,8.828-8.828h8.828
			c4.882,0,8.828,3.946,8.828,8.828C105.931,340.33,101.985,344.276,97.103,344.276"/>
		<path style="fill:#FFFFFF;" d="M220.69,344.276h-8.828c-4.882,0-8.828-3.946-8.828-8.828c0-4.882,3.946-8.828,8.828-8.828h8.828
			c4.882,0,8.828,3.946,8.828,8.828C229.517,340.33,225.571,344.276,220.69,344.276"/>
		<path style="fill:#FFFFFF;" d="M176.552,344.276h-8.828c-4.882,0-8.828-3.946-8.828-8.828c0-4.882,3.946-8.828,8.828-8.828h8.828
			c4.882,0,8.828,3.946,8.828,8.828C185.379,340.33,181.433,344.276,176.552,344.276"/>
		<path style="fill:#FFFFFF;" d="M141.241,335.448c0-4.873-3.955-8.828-8.828-8.828c-4.873,0-8.828,3.955-8.828,8.828
			s3.955,8.828,8.828,8.828C137.287,344.276,141.241,340.321,141.241,335.448"/>
		<path style="fill:#FFFFFF;" d="M79.448,379.586h-35.31c-4.882,0-8.828-3.946-8.828-8.828c0-4.882,3.946-8.828,8.828-8.828h35.31
			c4.882,0,8.828,3.946,8.828,8.828C88.276,375.64,84.33,379.586,79.448,379.586"/>
		<path style="fill:#FFFFFF;" d="M150.069,379.586h-35.31c-4.882,0-8.828-3.946-8.828-8.828c0-4.882,3.946-8.828,8.828-8.828h35.31
			c4.882,0,8.828,3.946,8.828,8.828C158.897,375.64,154.951,379.586,150.069,379.586"/>
		<path style="fill:#FFFFFF;" d="M220.69,379.586h-35.31c-4.882,0-8.828-3.946-8.828-8.828c0-4.882,3.946-8.828,8.828-8.828h35.31
			c4.882,0,8.828,3.946,8.828,8.828C229.517,375.64,225.571,379.586,220.69,379.586"/>
		<path style="fill:#FFFFFF;" d="M79.448,414.897h-35.31c-4.882,0-8.828-3.946-8.828-8.828c0-4.882,3.946-8.828,8.828-8.828h35.31
			c4.882,0,8.828,3.946,8.828,8.828C88.276,410.951,84.33,414.897,79.448,414.897"/>
		<path style="fill:#FFFFFF;" d="M150.069,414.897h-35.31c-4.882,0-8.828-3.946-8.828-8.828c0-4.882,3.946-8.828,8.828-8.828h35.31
			c4.882,0,8.828,3.946,8.828,8.828C158.897,410.951,154.951,414.897,150.069,414.897"/>
		<path style="fill:#FFFFFF;" d="M220.69,414.897h-35.31c-4.882,0-8.828-3.946-8.828-8.828c0-4.882,3.946-8.828,8.828-8.828h35.31
			c4.882,0,8.828,3.946,8.828,8.828C229.517,410.951,225.571,414.897,220.69,414.897"/>
		<path style="fill:#FFFFFF;" d="M79.448,450.207h-35.31c-4.882,0-8.828-3.946-8.828-8.828c0-4.882,3.946-8.828,8.828-8.828h35.31
			c4.882,0,8.828,3.946,8.828,8.828C88.276,446.261,84.33,450.207,79.448,450.207"/>
		<path style="fill:#FFFFFF;" d="M150.069,450.207h-35.31c-4.882,0-8.828-3.946-8.828-8.828c0-4.882,3.946-8.828,8.828-8.828h35.31
			c4.882,0,8.828,3.946,8.828,8.828C158.897,446.261,154.951,450.207,150.069,450.207"/>
		<path style="fill:#FFFFFF;" d="M220.69,450.207h-35.31c-4.882,0-8.828-3.946-8.828-8.828c0-4.882,3.946-8.828,8.828-8.828h35.31
			c4.882,0,8.828,3.946,8.828,8.828C229.517,446.261,225.571,450.207,220.69,450.207"/>
		<path style="fill:#FFFFFF;" d="M79.448,485.517h-35.31c-4.882,0-8.828-3.946-8.828-8.828c0-4.882,3.946-8.828,8.828-8.828h35.31
			c4.882,0,8.828,3.946,8.828,8.828C88.276,481.571,84.33,485.517,79.448,485.517"/>
		<path style="fill:#FFFFFF;" d="M150.069,485.517h-35.31c-4.882,0-8.828-3.946-8.828-8.828c0-4.882,3.946-8.828,8.828-8.828h35.31
			c4.882,0,8.828,3.946,8.828,8.828C158.897,481.571,154.951,485.517,150.069,485.517"/>
		<path style="fill:#FFFFFF;" d="M220.69,485.517h-35.31c-4.882,0-8.828-3.946-8.828-8.828c0-4.882,3.946-8.828,8.828-8.828h35.31
			c4.882,0,8.828,3.946,8.828,8.828C229.517,481.571,225.571,485.517,220.69,485.517"/>
	</g>
</g>
</svg>